<?xml version="1.0" encoding="UTF-8" standalone="no"?>
<!DOCTYPE svg PUBLIC "-//W3C//DTD SVG 1.1//EN" "http://www.w3.org/Graphics/SVG/1.1/DTD/svg11.dtd">
<svg version="1.1" xmlns="http://www.w3.org/2000/svg" xmlns:xlink="http://www.w3.org/1999/xlink" preserveAspectRatio="xMidYMid meet" viewBox="0 0 640 640" width="640" height="640"><defs><path d="M320 380C353.08 380 380 353.08 380 320C380 286.92 353.08 260 320 260C286.92 260 260 286.92 260 320C260 353.08 286.92 380 320 380Z" id="apH8Brsyw"></path><path d="M320 580C353.08 580 380 553.08 380 520C380 486.92 353.08 460 320 460C286.92 460 260 486.92 260 520C260 553.08 286.92 580 320 580Z" id="a1TYkxLWJO"></path><path d="M320 180C353.08 180 380 153.08 380 120C380 86.92 353.08 60 320 60C286.92 60 260 86.92 260 120C260 153.08 286.92 180 320 180Z" id="c45cr5cRIb"></path></defs><g><g><g><use xlink:href="#apH8Brsyw" opacity="1" fill="#ffffff" fill-opacity="1"></use><g><use xlink:href="#apH8Brsyw" opacity="1" fill-opacity="0" stroke="#000000" stroke-width="1" stroke-opacity="0"></use></g></g><g><use xlink:href="#a1TYkxLWJO" opacity="1" fill="#ffffff" fill-opacity="1"></use><g><use xlink:href="#a1TYkxLWJO" opacity="1" fill-opacity="0" stroke="#000000" stroke-width="1" stroke-opacity="0"></use></g></g><g><use xlink:href="#c45cr5cRIb" opacity="1" fill="#ffffff" fill-opacity="1"></use><g><use xlink:href="#c45cr5cRIb" opacity="1" fill-opacity="0" stroke="#000000" stroke-width="1" stroke-opacity="0"></use></g></g></g></g></svg>